<svg xmlns="http://www.w3.org/2000/svg" viewBox="0 0 200 200" width="200" height="200">
  <rect width="100%" height="100%" fill="#111827" />
  <text x="50%" y="50%" dominant-baseline="middle" text-anchor="middle" fill="#F9FAFB" font-family="Arial, Helvetica, sans-serif" font-size="36">LOGO</text>
</svg>
<svg width="2979" height="1661" viewBox="0 0 2979 1661" fill="none" xmlns="http://www.w3.org/2000/svg">
<path d="M2099 1661C2093.96 1658.56 2079.43 1660.75 2073.16 1660.13C2057.77 1658.62 2043.03 1657.4 2027.58 1656.62L2026.75 1654.36C2019.49 1653.36 2011.14 1653.85 2003.51 1652.9C1981.19 1650.13 1958.46 1646.74 1936.28 1643.03C1922.07 1640.65 1904.6 1634.14 1890 1631.61C1883.48 1630.48 1876.85 1628.52 1870.36 1627.18C1862.76 1624.98 1855.07 1619.35 1847.11 1618.36C1845.6 1618.17 1838.26 1617.43 1836.91 1616.88C1821.83 1610.7 1806.48 1605.09 1790.99 1599.99C1789.95 1599.64 1788.71 1598.05 1788.06 1597.3C1784.56 1593.21 1778.8 1595.12 1771.77 1592.5C1763.42 1582.24 1763.16 1588.51 1752.45 1583.88C1749.71 1582.7 1739.47 1574.26 1736.39 1572.88C1728.63 1569.41 1720.11 1566.1 1712.78 1561.63C1694 1550.15 1675.87 1538.67 1658.18 1525.55C1651.48 1520.57 1644.71 1516.4 1638.49 1510.65C1636.07 1508.4 1632.91 1504.1 1630.42 1503.46C1621.42 1501.17 1610.86 1484.09 1602.18 1477.81C1600.18 1475.23 1588.53 1468.82 1587.53 1467.02C1578.56 1450.77 1562.13 1437.94 1550.07 1423.51C1549.66 1423.03 1550.79 1421.29 1548.46 1418.45C1518.68 1382.3 1496.83 1339.39 1473.62 1298.8C1467.54 1288.16 1454.55 1267.2 1451.2 1256.86L1450.79 1255.57C1443.38 1251.21 1431.39 1223.29 1427.18 1214.14C1426.02 1211.62 1423.98 1211.06 1421.62 1209.59C1417.35 1196.81 1407.25 1182.34 1400.59 1170.16C1388.36 1147.79 1375.41 1125.54 1362.86 1103.33C1361.33 1100.62 1360.52 1097.24 1359.05 1094.58C1355.5 1088.19 1350.74 1081.67 1346.5 1075.67C1346.46 1075.62 1346 1070.38 1346.01 1070.14L1341.69 1067.73C1337.65 1058.09 1331.05 1047.29 1326.2 1038.06C1319.49 1025.29 1311.66 1013.6 1304.84 1000.95C1303.35 998.175 1302.21 994.887 1301.26 991.932L1300.83 990.54C1299.65 989.869 1296.3 987.661 1295.77 986.42C1289.97 972.941 1281.73 961.534 1276.72 947.709C1264.72 939.377 1269.28 930.935 1265.99 928.483C1256.02 921.034 1253.15 907.15 1245.89 896.251C1241.83 890.164 1244.13 885.173 1236.14 882.718C1236.13 882.715 1233.75 869.465 1231.18 868.695C1227.87 865.14 1224.96 861.225 1223.03 856.978C1219.1 848.35 1213.78 839.197 1209.21 830.957L1170.56 761.884C1164.21 750.579 1155.37 739.21 1151.1 726.88C1151.39 725.198 1144.84 722.041 1144.7 720.902C1142.83 706.435 1130.02 697.181 1126.48 682.875C1125.94 680.673 1121.91 679.807 1121.66 679.106C1114.42 658.912 1098.97 642.271 1092.13 621.985C1091.36 619.671 1088.83 618.537 1086.74 617.04C1082.21 604.989 1073.79 592.195 1067.25 580.794L1042.13 536.279C1034.81 523.495 985.485 433.163 980.04 429.624L979.141 430.202C978.998 431.439 978.637 433.552 978.018 434.551C956.527 469.209 935.101 503.96 914.015 538.893C907.294 550.027 901.305 553.784 898.838 566.613L893.273 569.286L890.972 579.574C883.641 583.854 885.322 585.353 881.286 592.038L842.223 656.266L816.454 698.553C811.145 707.133 804.905 713.239 802.58 721.686C802.17 723.177 802.131 723.42 801.196 724.721C789.492 741.001 778.911 759.366 768.216 776.736C755.446 797.474 740.563 819.826 729.951 841.507C728.808 843.841 728.057 843.685 725.459 845.406C722.733 851.695 710.743 872.564 705.924 878.44C704.839 879.764 703.967 878.576 702.852 881.918C709.85 887.694 982.092 877.673 1017.83 883.821C1024.1 892.068 1034.38 911.586 1039.76 921.283C1063.84 964.717 1088.79 1008.4 1113.11 1052.01C1116.55 1058.17 1125.97 1073.3 1126.14 1079.36C1125.77 1079.53 1125.41 1079.71 1125.04 1079.86C1118.17 1082.72 1002.83 1081.17 985 1080.98C974.028 1080.86 963.45 1078.24 952.498 1078.05C896.179 1077.08 839.764 1078.39 783.431 1078.1C772.513 1078.05 761.873 1076.12 750.976 1075.98C708.244 1075.45 665.433 1076.02 622.694 1076.05C611.413 1076.06 569.706 1078.06 561.782 1074.51C553.511 1070.8 536.024 1072.93 526.636 1072.94L418.861 1073.03C404.288 1073.04 363.448 1074.74 351.557 1070.24C347.308 1064.13 364.843 1041.72 368.878 1035.01L449.615 899.701C454.007 892.349 456.779 887.693 460.377 879.963C463.385 874.925 468.257 869.881 471.13 864.9C496.629 820.705 523.063 776.883 549.645 733.381C554.004 726.248 553.449 721.826 560.501 716.895C564.868 705.759 573.602 693.159 579.796 682.621C594.779 657.134 609.859 631.343 626.245 606.79C631.103 599.511 640.99 578.433 645.839 574.648L646.882 573.869C650.781 564.108 658.995 551.639 664.627 542.249C675.162 524.443 685.828 506.715 696.624 489.065C718.616 452.639 742.063 414.265 762.582 376.88C762.582 376.88 767.614 373.972 767.956 373.774C769.547 364.214 768.682 364.122 775.611 359.774C776.143 359.197 778.236 350.525 778.257 350.514C785.431 346.916 784.614 343.372 786.265 336.455L791.751 333.753C793.908 324.014 792.472 324.184 799.824 319.579C800.001 318.569 802.115 310.32 802.215 310.264C809.684 306.1 808.175 305.051 810.018 296.439C818.645 291.545 819.661 281.362 825.548 273.504C827.343 271.108 830.307 267.413 831.651 265.148L857.021 221.972C864.788 208.873 872.687 193.121 882.105 181.547C883.684 179.607 883.101 179.108 883.23 175.858C888.273 169.753 907.233 141.53 906.707 135.376L911.266 132.692C917.014 119.55 975.321 21.5928 982.898 13.2812C987.336 12.7263 991.902 18.43 993.024 21.9853C998.565 39.5554 1015.25 55.0454 1018.85 72.8782L1019 73.635L1024.24 76.409C1030.65 93.0101 1043.34 113.362 1052.12 129.361C1058.06 140.176 1066.35 151.049 1069.81 163.035C1070.65 165.942 1075.01 167.389 1075.34 168.299C1080.23 181.529 1088.98 192.877 1093.87 205.779C1092.92 207.458 1099.81 209.725 1099.88 210.255C1101.6 223.506 1111.43 232.566 1116.82 244.364C1119.5 250.22 1119.36 252.654 1123.4 257.885C1130.48 267.067 1141.44 286.309 1144.84 297.011L1145.25 298.317C1146.59 298.978 1149.72 300.888 1150.33 302.262C1154.01 312.918 1162.35 323.589 1166.41 333.388C1170.77 343.945 1174.64 347.751 1180.03 357.029C1188.92 372.33 1197.01 388.656 1206.02 404C1211.05 412.574 1216.38 421.806 1219.96 431C1220.69 433.007 1223.49 434.176 1225.39 435.381C1235.19 464.296 1260.67 494.934 1271.72 523.775C1271.69 523.691 1276.18 526.812 1276.58 527.083C1281.86 542.955 1299.35 570.43 1307.96 586.023C1315.17 598.016 1321.61 611.457 1328.75 623.405C1335.02 633.88 1331.48 635.929 1341.09 643.092C1344.46 645.6 1340.68 654.436 1351.25 660.7C1355.95 674.521 1359 676.201 1365.29 687.645L1392.53 737.119C1399.03 749.151 1406.43 760.275 1410.76 773.227C1410.76 773.227 1414.96 775.702 1415.39 775.958C1420.89 789.458 1426.69 799.411 1434.15 811.813C1434.81 813.911 1439.92 818.665 1440.34 820.278C1444.57 836.584 1456.59 847.416 1461.48 863.16C1462.23 865.571 1465.92 866.329 1466.2 867.075C1468.66 873.806 1472.24 879.623 1475.63 885.833L1536.23 994.444C1543.86 1008.26 1553.4 1023.55 1559.68 1037.65C1562.56 1044.11 1567.09 1046.24 1568.51 1049.7C1577.08 1070.45 1590.21 1089.38 1600.78 1109.36C1616.13 1138.36 1634.58 1168.57 1655.85 1193.63C1657.98 1196.14 1656.53 1197.83 1657.15 1198.37C1667.84 1207.66 1674.53 1219.68 1685.84 1228.54C1685.96 1229.99 1686.07 1231.45 1686.18 1232.9C1689.73 1236.21 1695.58 1241.89 1698.95 1245C1709.92 1255.1 1721.15 1268.2 1731.99 1277.92C1758.78 1301.95 1786.7 1324 1816.25 1344.56C1826.97 1352.02 1841.49 1359.8 1852.78 1366.66C1855.91 1368.53 1861.37 1369.55 1864.25 1371.5C1879.53 1381.83 1897.33 1387.95 1913.71 1396.82C1920.49 1400.49 1932.65 1402.36 1939.99 1405.38C1941.67 1406.07 1943.71 1407.84 1944.82 1409.52C1945.44 1411.82 1955.93 1412.38 1958.22 1412.36C1966.16 1412.3 1969.3 1417.42 1974.35 1419.04C1978.09 1420.24 1985.46 1419.9 1990.86 1421.71C2019.74 1431.42 2051.93 1436.14 2082.19 1439.42C2090.25 1440.29 2103.83 1442.83 2110.82 1442.87C2138.29 1443.04 2167.03 1443.54 2194.41 1442.77L2195.53 1440.24C2204.99 1439 2217.77 1440.91 2227.79 1439.86L2228.41 1437.63C2237.78 1435.82 2251.62 1436.06 2261.72 1434.6L2262.32 1432.26C2267.63 1430.81 2273.49 1433.52 2280.76 1431.79L2281.36 1429.39C2288.53 1426.94 2296.59 1428.91 2304.65 1426.51L2305.09 1424.38C2308.2 1422.83 2312.86 1425.07 2318.74 1423.7L2319.56 1421.13C2337.01 1419.15 2347.83 1415.29 2364.41 1409.93C2368.35 1408.65 2373.1 1408.84 2376.25 1407.8C2382.45 1405.75 2386.95 1400.7 2394.38 1400.97C2400.96 1401.98 2406.13 1395.83 2411.03 1394.68C2431.81 1389.81 2450.29 1381.3 2469.72 1373.34C2475.33 1371.05 2474.73 1371.15 2479.91 1367.85C2481.32 1367.87 2485.37 1367.91 2486.45 1367.34C2513.72 1352.89 2538.88 1331.96 2561.43 1311.12C2561.86 1310.98 2562.28 1310.84 2562.7 1310.7C2569.44 1309.58 2571.61 1302.53 2576.4 1298.42C2578.49 1296.61 2584.42 1294.69 2586.42 1292.49C2602.49 1274.85 2619.92 1258.37 2636.28 1240.94C2640.51 1236.42 2651.4 1228.36 2654.1 1223.66C2660.29 1212.89 2670.87 1202.04 2679.89 1193.46C2679.98 1191.96 2680.08 1190.46 2680.17 1188.96C2683.58 1185.77 2687.13 1181.58 2689.82 1177.92C2701.79 1161.56 2714.56 1144.32 2722.8 1125.68C2723.92 1123.15 2725.87 1122.56 2728.53 1120.92C2731.37 1112.38 2736.76 1102.71 2739.85 1093.92C2740.6 1091.77 2745.75 1091.03 2745.84 1082.66C2745.86 1080.71 2747.01 1074.81 2749.19 1073.61C2749.9 1073.21 2752.03 1070.7 2752.33 1069.82C2756.61 1057.44 2759.63 1044.68 2763.28 1032.09C2764.66 1027.31 2768.3 1023.05 2768.82 1019.19C2770.02 1010.25 2770.52 1000.62 2771.01 991.581C2771.02 991.408 2773.19 989.289 2773.41 989.085L2774.23 988.335L2773.92 985.584C2773 985.237 2711.04 987.052 2702.48 987.048C2621.24 987.008 2539.78 985.739 2458.57 987.19C2457.75 989.003 2458.25 988.116 2457.05 989.835C2431.11 991.034 2399.89 989.694 2373.5 989.982C2304.86 990.73 2235.12 988.9 2166.57 990.197C2165.76 992.013 2166.25 991.124 2165.05 992.849C2148.12 993.737 2124.44 993.034 2107 993L2107.02 863.122C2107.02 849.4 2107.92 812.598 2106.65 800.259L2104.41 799.644C2103.4 794.856 2103.93 781.533 2104 776L2667.25 777.997L2848.53 777.977L2901.34 777.973C2908.21 777.973 2922.5 777.534 2928.45 778.324L2929.57 780.796C2942.48 781.657 2961.64 781.028 2975 781C2974.99 783.679 2974.53 788.563 2975.63 790.938C2979.25 798.771 2977.63 809.033 2977.99 817.602C2978.26 823.914 2978.01 830.857 2978.01 837.253C2978.17 860.548 2978.16 883.843 2977.99 907.138C2977.89 913.879 2977.06 936.657 2979 942V1001C2978.19 1003.34 2977.85 1005.06 2977.97 1007.57C2978.31 1014.69 2973.71 1020.74 2971.9 1027.37C2970.62 1032.57 2971.71 1040.58 2969.21 1045.74L2966.97 1046.15C2966.1 1050.19 2967.15 1053.52 2966.66 1054.89C2964.75 1060.29 2962.93 1065.4 2961.2 1070.93C2952.24 1099.56 2941.78 1127.52 2931.13 1155.51C2929.84 1158.92 2926.32 1163.92 2924.7 1167.51C2923.39 1170.41 2922.77 1174.04 2921.45 1176.71C2914.3 1191.21 2907.9 1204.92 2902.28 1220.13C2894.69 1224.65 2896.4 1227.69 2892.49 1235.49C2887.69 1245.07 2882.93 1254.57 2877.38 1263.76C2873.31 1270.64 2869.63 1278.28 2863.82 1283.73C2860.77 1286.59 2861.47 1290.51 2859.72 1294.1C2858.08 1295.41 2853.16 1302.49 2852.37 1303.04C2849.7 1304.88 2841.54 1322.73 2841.05 1323.11C2831.89 1330.23 2833.15 1331.4 2827.94 1341.17C2824.53 1347.58 2813.19 1358.53 2809.13 1365.61C2798.5 1378.62 2787.49 1391.44 2776.45 1404.09C2771.3 1409.99 2766.67 1416.04 2761.37 1421.85C2748.12 1436.4 2729.72 1451.95 2717.23 1466.59L2716.43 1466.6C2714.72 1466.65 2712.99 1466.47 2711.68 1467.74C2704.86 1474.39 2699.87 1484.56 2690.55 1487.49C2687.85 1488.33 2662.95 1510.9 2658.31 1514.54C2654.92 1517.21 2649.65 1518.27 2645.88 1520.65C2641.97 1523.12 2638.71 1527.52 2634.65 1530.35C2624.09 1537.7 2611.71 1543.45 2602.04 1551.87L2597.43 1551.91C2596.93 1552.9 2594.8 1557.41 2593.93 1557.73C2572.45 1565.59 2554.7 1580.7 2532.75 1587.77C2531.62 1588.13 2528.89 1591.56 2528.21 1592.52C2525.64 1593.42 2516.42 1594.9 2515.53 1595.42C2490.51 1609.97 2462.67 1615.74 2436.77 1627.94C2434.31 1629.1 2422.01 1629.57 2421.38 1630.13C2412.57 1637.92 2401.98 1635.35 2394.26 1638.27L2393.67 1640.71C2387.52 1642.17 2383.21 1639.49 2379.94 1641.28L2379.51 1643.33C2372.06 1645.55 2357.05 1645.86 2348.61 1646.21L2347.5 1648.84C2341.15 1649.5 2333.98 1647.97 2329.25 1649.14L2328.38 1651.52C2303.07 1653.44 2277.54 1656.86 2252.53 1657.25L2251.39 1659.81C2241.61 1660.96 2208.97 1658.32 2203 1661H2099Z" fill="white"/>
<path d="M2144.15 0H2211.86C2217.03 3.30789 2234.16 -0.0446211 2243.32 0.963844C2260.55 2.85908 2276.18 6.45162 2293.43 7.3683C2294.82 11.8435 2303.51 8.29165 2309.45 8.86988C2309.88 10.0264 2310.28 11.1946 2310.64 12.3732C2320.26 12.753 2324.56 12.744 2333.66 15.4756L2334.13 17.5458C2337.45 18.8313 2338.79 15.8408 2344.77 16.9428L2345.37 19.945C2347.63 20.9359 2360.95 21.0674 2368.38 23.3141L2369.5 26.1585C2378.56 24.1495 2384.26 29.3611 2394.09 33.6269C2397.27 32.884 2397.29 32.7774 2400.48 32.99C2400.89 34.2271 2401.27 35.4732 2401.62 36.7272C2413.49 35.0299 2413.98 41.8028 2418.38 41.9411C2435.74 42.4865 2432.7 46.2409 2444.97 52.7407C2447.91 52.0349 2449.64 51.2035 2452.3 52.477C2460.02 61.9506 2457.47 55.8419 2464.86 58.3395C2471.05 60.4314 2480.91 67.0367 2486.69 70.4743C2491.71 73.4632 2497.08 74.6231 2502.67 76.3266L2503.41 79.646C2525.1 85.9185 2546.64 101.04 2565.46 113.045C2567.26 114.193 2571.14 118.429 2571.95 118.799C2576.3 120.783 2582.17 120.72 2586.19 124.387C2590.62 125.725 2602.41 139.214 2604.91 140.178C2617.87 145.191 2624.51 151.66 2634.48 161.523C2634.02 161.07 2642.1 161.783 2643.43 167.027C2643.55 167.528 2647.74 172.116 2648.33 172.638C2658.71 174.044 2657.45 180.229 2664.39 186.936L2668.23 186.098C2671.7 188.416 2674.03 192.594 2677.14 194.986C2690.77 205.485 2701.06 216.413 2712.33 229.308C2714.4 229.538 2714.89 229.382 2716.95 229.05C2724.08 236.817 2741.64 253.851 2750.05 262.598C2749.8 263.866 2749.56 265.135 2749.31 266.403C2759.36 275.239 2769.41 284.567 2778.95 293.922C2779.46 294.428 2777.92 298.156 2780.12 300.195C2784.17 303.938 2794.35 308.027 2794.23 313.625C2794.1 319.818 2805.36 323.938 2808.73 328.747C2809.53 329.89 2808.86 330.517 2808.27 332.671C2809.02 334.698 2817.25 340.437 2819.79 342.557L2818.88 346.547C2820.56 349.734 2827.76 351.16 2828.02 352.455C2829.78 361.458 2838.14 368.232 2843.98 375.011L2842.9 378.595C2845.12 382.576 2849.6 381.329 2852.12 385.523L2851.2 388.698C2853.39 394.768 2861.59 390.661 2859.19 400.451C2861.27 401.409 2863.74 402.272 2865.24 403.89C2864.6 406.158 2864.47 406.102 2864.76 408.401C2874.53 416.059 2898.03 457.568 2905.58 469.652C2906.13 470.528 2911.21 477.547 2911.1 477.673C2909.25 479.809 2913.04 484.586 2913.32 487.553C2913.35 487.877 2913.93 491.064 2913.13 491.363C2898.7 496.768 2885.28 504.845 2870.8 510.281C2869.52 512.342 2868.46 514.071 2867.59 515.469C2838.23 525.098 2809.91 547.852 2780.69 557.949C2778.68 558.642 2777.84 561.154 2776.51 563.431C2770.49 565.904 2756.57 573.198 2751.69 574.19C2750.41 573.802 2740.97 567.469 2739.23 566.208C2738.46 565.651 2739.45 562.515 2739.69 561.29L2734.38 558.896C2733.5 555.637 2733.62 557.31 2734.52 553.684C2728.12 547.924 2725.65 545.071 2720.23 538.321L2721.09 535.906C2720.36 531.642 2717.74 535.025 2714.64 530.705L2715.4 526.875C2706.8 518.79 2704.21 513.08 2697.34 504.522C2685.78 490.127 2672.06 470.467 2659.02 457.926L2659.34 454.763C2656.7 450.706 2634.34 431.265 2629.15 426.498C2629.03 424.786 2629.36 423.726 2629.85 422.096L2573.44 369.915C2570.38 367.043 2560.25 354.994 2558.17 354.304C2556.46 354.84 2556.27 354.799 2554.49 355.039C2548.16 346.983 2548.69 344.272 2538.55 341.947C2538.28 341.887 2532.23 332.294 2530.04 330.094L2526.44 331.146C2523.72 329.659 2521.88 325.476 2519.98 322.406C2518.13 322.64 2516.99 322.685 2515.12 322.786C2507.71 315.276 2493.76 307.023 2484.3 298.361C2476.36 300.814 2479.57 296.481 2476.46 293.075C2476.14 292.717 2468.34 291.688 2466.53 290.151C2450.21 276.294 2428.88 270.899 2412.03 257.916C2410.23 258.556 2410.19 258.63 2408.3 258.759L2407.84 256.029L2406.57 255.223C2403.1 256.032 2401.95 256.679 2398.79 255.498C2391.29 246.829 2373.44 243.172 2362.45 239.573L2361.71 236.379C2345.33 236.592 2329.74 223.707 2312.59 224.127C2309.36 224.206 2293.93 218.529 2290.05 217.088C2281.51 213.916 2279.88 216.847 2271.51 216.037L2270.85 213.728C2268.43 212.273 2259.41 213.004 2255.94 213.129C2254.64 211.858 2254.82 211.983 2254.37 210.29C2248.96 209.123 2240.98 210.331 2234.52 210.12L2233.53 207.849C2227.27 206.285 2211.93 209.463 2204.27 207.699L2203.45 204.639C2190.88 203.297 2170.92 204.484 2157.51 204.622C2156.98 204.627 2152.69 204.612 2152.55 204.779C2150.89 206.728 2153.38 207.834 2149.56 208.265C2139.18 209.436 2127.89 207.368 2117.19 208.332C2092.62 210.542 2002.15 226.221 1982.95 238.38C1977.73 241.687 1974.93 238.203 1969.83 239.494C1962.47 248.168 1952.61 247.116 1940.01 250.842C1933.57 257.692 1935.59 255.841 1927.23 255.101L1926.52 258.422C1922.64 260.118 1918.26 262.282 1913.98 263.179C1901.17 265.859 1889.93 278.241 1874.59 279.386C1871.43 280.01 1875.32 281.505 1870.17 283.452C1859.67 287.426 1852.7 288.914 1845.49 297.756C1844.83 298.558 1831.1 302.653 1828.6 303.403C1828.19 304.4 1826.81 307.924 1826 308.248C1815.96 312.257 1807.39 318.444 1797.93 323.565C1793.13 326.162 1789.63 326.555 1786.5 331.461C1783.45 336.247 1775.9 335.371 1771.06 340.158C1765.78 345.375 1758.71 348.644 1752.79 353.911L1751.8 354.799L1748.58 354.319C1745.65 356.145 1745.68 359.775 1742.17 363.213C1739.88 362.561 1739.95 362.463 1737.6 362.671C1733.95 367.067 1724.86 374.738 1720.37 378.734L1718.73 378.762C1711.93 378.926 1712.7 386.042 1706.8 390.369C1704.4 391.032 1702.01 391.694 1699.62 392.357C1696.5 396.066 1691.96 405.049 1685.7 403.488C1679.07 401.834 1668.47 389.076 1663.46 384.083C1646.15 366.811 1628.93 349.706 1611.7 332.379C1605.95 325.7 1601.7 319.091 1595.64 312.533C1580.94 296.636 1560.98 281.123 1547.68 264.316C1547.38 257.779 1551.22 257.713 1552.05 253.589C1554.2 252.383 1554.2 253.01 1557.42 253.745C1563.81 248.612 1563.13 240.133 1570.27 242.847C1572.93 241.711 1585.05 229.232 1587.87 226.431C1589.49 226.483 1591.04 226.714 1592.63 227.019C1596.68 220.568 1596.42 216.986 1603.41 218.844C1604.97 215.742 1604.98 214.409 1607.44 212.79L1611.41 213.663C1612.08 212.71 1617.52 205.139 1617.65 205.1C1628.02 201.971 1633.26 196.433 1641.69 190.127C1647.89 185.491 1654.34 181.493 1660.04 175.892L1660.98 174.961L1664.35 175.846C1666.54 173.678 1685.18 160.155 1687.01 159.639C1704.09 154.837 1707.94 141.425 1725.41 138.558C1726.07 138.45 1731.69 132.959 1733.11 132.492C1746.51 123.819 1760.33 116.379 1775.31 110.808C1777.75 109.902 1781.95 103.569 1785.48 102.217C1791.22 100.02 1796.88 97.1037 1802.47 94.5125C1808.95 91.3211 1815.48 91.171 1819.38 84.6774C1820.38 83.0283 1825.87 84.4476 1828.41 84.6725C1831.24 82.836 1836.82 78.0501 1838.89 76.9685C1846.38 73.0515 1869.7 67.5916 1874.96 62.1021C1879.58 57.2829 1882.91 61.2102 1884.55 60.32C1889.62 57.5664 1894.79 53.9443 1900.54 52.0106C1903.33 52.7268 1904.8 53.4709 1907.42 52.3843C1907.95 51.6159 1908.49 50.8618 1909.05 50.1226C1913.1 44.7625 1919.27 45.9001 1925.2 44.4128C1932.17 42.6652 1942.48 38.3717 1949.34 34.9775C1955.89 31.7403 1961.68 34.1075 1962.04 33.9012C1971.2 28.6609 1969.12 27.2972 1981.47 28.9159C1981.86 27.6718 1982.21 26.664 1982.68 25.4451C1988.6 24.1203 1994.75 22.8433 2000.5 20.851C2004.33 19.5251 2009.08 20.6617 2013.38 20.6285C2013.74 19.338 2014.09 18.2809 2014.53 17.0137C2018 16.5994 2019.91 17.1782 2023.39 17.7973C2023.63 16.9572 2024.15 14.7847 2024.91 14.9091C2033.76 16.3561 2042.22 11.907 2049.72 10.7143C2069.05 7.64026 2088 4.78255 2107.46 3.46936C2106.55 3.53083 2108.89 -0.200887 2110.89 0.778875C2119.23 -0.24236 2137.58 3.93523 2144.15 0Z" fill="white"/>
<path d="M0 1642.35C0.608429 1636.83 36.6879 1578.15 42.6812 1568.18L154.871 1379.44C165.444 1361.54 177.306 1343.05 187.965 1325.09C188.942 1323.44 188.954 1321.21 188.724 1319.33C195.722 1315.09 196.853 1309.17 201.162 1301.99L257.089 1207.28C260.03 1202.41 263.85 1198.08 266.838 1193.24C268.512 1190.53 270.779 1181.92 272.469 1180.52C274.357 1178.97 397.812 1180.01 408.756 1180.01L950.582 1177.97L1094.35 1177.98C1120.17 1177.99 1148.6 1177.35 1174.07 1178.28C1183.48 1187.6 1189.29 1209.64 1198.82 1215.53C1200.47 1218.81 1203.62 1230.3 1205.04 1231.23C1213.35 1236.67 1216.5 1249.83 1221.36 1257.71C1228.34 1269.02 1233.85 1271.71 1236.77 1284.82C1237.22 1286.84 1245.59 1297.34 1247.88 1303.17C1248.87 1303.64 1251.09 1304.97 1251.52 1305.95C1260.73 1327.2 1275.21 1345.97 1285.69 1366.48C1286.36 1367.79 1286.05 1376.03 1286 1378L1091.1 1377.97L1036.64 1377.99C1009.22 1378.01 984.128 1381 956.595 1381L901.254 1380.99L702.517 1380.98C680.958 1380.99 644.465 1378.85 624.329 1382.34C596.523 1387.15 405.926 1381.36 400.558 1384.43C399.971 1384.77 399.088 1386.3 398.646 1386.91C390.988 1397.47 385.92 1410.19 379.236 1421.42C352.659 1466.06 325.61 1510.45 299.74 1555.53C296.557 1561.08 292.279 1566 288.974 1571.48C283.731 1580.17 277.919 1591.22 274.339 1600.69C272.966 1601.51 271.306 1602.51 269.357 1603.68C266.051 1611.35 262.412 1618.94 258.642 1626.4C258.642 1626.41 253.789 1629.72 253.789 1629.72C252.743 1632.77 251.175 1635.88 249.894 1638.77C247.236 1644.79 242.461 1650.45 240.296 1656.33C239.471 1658.57 240.266 1659.33 237.826 1661H216C211.449 1659.42 186.072 1660.12 179.098 1659.76L31.504 1651.76C17.9169 1651.04 15.2812 1648.77 0 1649V1642.35Z" fill="white"/>
</svg>
